<?xml version="1.0" encoding="utf-8"?>
<!-- Generator: Adobe Illustrator 17.0.0, SVG Export Plug-In . SVG Version: 6.00 Build 0)  -->
<!DOCTYPE svg PUBLIC "-//W3C//DTD SVG 1.1//EN" "http://www.w3.org/Graphics/SVG/1.1/DTD/svg11.dtd">
<svg version="1.1" id="Capa_1" xmlns="http://www.w3.org/2000/svg" xmlns:xlink="http://www.w3.org/1999/xlink" x="0px" y="0px"
	 width="44.129px" height="70.035px" viewBox="0 0 44.129 70.035" enable-background="new 0 0 44.129 70.035" xml:space="preserve">
<path fill="#231F20" d="M26.201,18.41h6.932v8.271h-6.932v6.933h-8.273v-6.933h-6.933V18.41h6.933v-6.933h8.273V18.41z
	 M43.147,22.638c0,11.644-21.085,45.84-21.085,45.84S0.981,34.282,0.981,22.638c0-11.641,9.441-21.081,21.081-21.081
	C33.707,1.557,43.148,10.997,43.147,22.638z M38.375,22.638c0-8.993-7.315-16.313-16.313-16.313
	c-8.992,0-16.311,7.319-16.311,16.313c0,8.997,7.318,16.311,16.311,16.311C31.059,38.949,38.375,31.635,38.375,22.638z"/>
</svg>
