<?xml version="1.0" encoding="iso-8859-1"?>
<!-- Generator: Adobe Illustrator 16.0.0, SVG Export Plug-In . SVG Version: 6.00 Build 0)  -->
<!DOCTYPE svg PUBLIC "-//W3C//DTD SVG 1.1//EN" "http://www.w3.org/Graphics/SVG/1.1/DTD/svg11.dtd">
<svg version="1.1" id="Capa_1" xmlns="http://www.w3.org/2000/svg" xmlns:xlink="http://www.w3.org/1999/xlink" x="0px" y="0px"
	 width="28.395px" height="28.808px" viewBox="0 0 28.395 28.808" style="enable-background:new 0 0 28.395 28.808;"
	 xml:space="preserve">
<path d="M21.266,6.081c1.105,0,2-0.889,2-1.994V1.998c0-1.106-0.895-1.998-2-1.998c-1.104,0-1.996,0.892-1.996,1.998v2.089
	C19.27,5.192,20.162,6.081,21.266,6.081z"/>
<path d="M28.365,3.457h-4.021v1.017c0,1.676-1.363,3.043-3.043,3.043c-1.682,0-3.041-1.367-3.041-3.043V3.457h-8.117v1.017
	c0,1.676-1.363,3.043-3.043,3.043S4.059,6.149,4.059,4.473V3.457L0,3.406v25.402h2.029h24.34l2.025-0.006L28.365,3.457z
	 M26.369,26.785H2.029V10.557h24.34V26.785z"/>
<path d="M7.068,6.081c1.105,0,1.998-0.889,1.998-1.994V1.998C9.066,0.892,8.174,0,7.068,0C5.965,0,5.072,0.892,5.072,1.998v2.089
	C5.072,5.192,5.965,6.081,7.068,6.081z"/>
<rect x="10.15" y="12.735" width="3.195" height="2.821"/>
<rect x="15.318" y="12.735" width="3.199" height="2.821"/>
<rect x="20.111" y="12.735" width="3.195" height="2.821"/>
<rect x="10.15" y="17.42" width="3.195" height="2.819"/>
<rect x="15.318" y="17.42" width="3.199" height="2.819"/>
<rect x="20.111" y="17.42" width="3.195" height="2.819"/>
<rect x="10.15" y="22.198" width="3.195" height="2.819"/>
<rect x="5.072" y="17.42" width="3.193" height="2.819"/>
<rect x="5.072" y="22.198" width="3.193" height="2.819"/>
<rect x="15.318" y="22.198" width="3.199" height="2.819"/>
<rect x="20.111" y="22.198" width="3.195" height="2.819"/>
<g>
</g>
<g>
</g>
<g>
</g>
<g>
</g>
<g>
</g>
<g>
</g>
<g>
</g>
<g>
</g>
<g>
</g>
<g>
</g>
<g>
</g>
<g>
</g>
<g>
</g>
<g>
</g>
<g>
</g>
</svg>
