<?xml version="1.0" encoding="iso-8859-1"?>
<!-- Generator: Adobe Illustrator 16.0.0, SVG Export Plug-In . SVG Version: 6.00 Build 0)  -->
<!DOCTYPE svg PUBLIC "-//W3C//DTD SVG 1.1//EN" "http://www.w3.org/Graphics/SVG/1.1/DTD/svg11.dtd">
<svg version="1.1" xmlns="http://www.w3.org/2000/svg" xmlns:xlink="http://www.w3.org/1999/xlink" x="0px" y="0px"
	 width="20.414px" height="28.519px" viewBox="0 0 20.414 28.519" style="enable-background:new 0 0 20.414 28.519;"
	 xml:space="preserve">
<g id="c4_telephone">
	<path style="fill:#000000;" d="M20.272,25.813v-0.006l-3.725-6.295c-0.285-0.488-0.904-0.638-1.383-0.355l-2.22,1.314l0.183,0.307
		c-0.982,0.442-1.854-0.556-3.399-2.65l-3.177-5.362c-0.627-1.372-1.123-2.764-0.17-3.437l0.102,0.174l2.219-1.312V8.187
		C9.21,7.886,9.331,7.26,9.057,6.797V6.792L5.333,0.497C5.049,0.01,4.429-0.142,3.95,0.142L1.733,1.456l0.136,0.227
		c-1.229,1.01-4.3,5.781,1.793,16.364c6.324,10.984,12.35,10.916,13.879,10.205l0.155,0.267l2.219-1.311v-0.003
		C20.425,26.903,20.544,26.277,20.272,25.813z"/>
</g>
<g id="Capa_1">
</g>
</svg>
