<?xml version="1.0" encoding="iso-8859-1"?>
<!-- Generator: Adobe Illustrator 16.0.0, SVG Export Plug-In . SVG Version: 6.00 Build 0)  -->
<!DOCTYPE svg PUBLIC "-//W3C//DTD SVG 1.1//EN" "http://www.w3.org/Graphics/SVG/1.1/DTD/svg11.dtd">
<svg version="1.1" id="Capa_1" xmlns="http://www.w3.org/2000/svg" xmlns:xlink="http://www.w3.org/1999/xlink" x="0px" y="0px"
	 width="31.771px" height="31.771px" viewBox="0 0 31.771 31.771" style="enable-background:new 0 0 31.771 31.771;"
	 xml:space="preserve">
<path style="fill:#000000;" d="M15.887,0C7.113,0,0,7.115,0,15.889c0,8.77,7.113,15.883,15.887,15.883
	c8.773,0,15.884-7.113,15.884-15.883C31.771,7.115,24.66,0,15.887,0z M15.887,26.947c-6.1,0-11.064-4.961-11.064-11.059
	c0-6.104,4.964-11.068,11.064-11.068c6.101,0,11.061,4.965,11.061,11.068C26.947,21.986,21.987,26.947,15.887,26.947z"/>
<path style="fill:#000000;" d="M17.253,15.012l0.001-6.133c0-0.754-0.611-1.363-1.367-1.363c-0.758,0-1.37,0.609-1.37,1.363v6.133
	v2.734v0.002h2.736v-0.002l6.134,0.002c0.752,0,1.366-0.611,1.366-1.367c0-0.758-0.614-1.369-1.366-1.369H17.253z"/>
<g>
</g>
<g>
</g>
<g>
</g>
<g>
</g>
<g>
</g>
<g>
</g>
<g>
</g>
<g>
</g>
<g>
</g>
<g>
</g>
<g>
</g>
<g>
</g>
<g>
</g>
<g>
</g>
<g>
</g>
</svg>
